<?xml version="1.0" ?><!-- Uploaded to: SVG Repo, www.svgrepo.com, Generator: SVG Repo Mixer Tools -->
<svg fill="#F97316" width="800px" height="800px" viewBox="0 0 32 32" id="OBJECT" xmlns="http://www.w3.org/2000/svg"><title/><path d="M12.67,9.67h6.66A7.68,7.68,0,0,0,27,2a1,1,0,0,0-1-1H22.67A7.66,7.66,0,0,0,16,4.9,7.66,7.66,0,0,0,9.33,1H6A1,1,0,0,0,5,2,7.68,7.68,0,0,0,12.67,9.67Z"/><path d="M21.67,19A6,6,0,0,0,17,15.09V11.67H15v3.42A6,6,0,0,0,10.33,19,6,6,0,0,0,11,31H21a6,6,0,0,0,.67-12Z"/></svg>
