<?xml version="1.0" encoding="iso-8859-1"?>
<!-- Uploaded to: SVG Repo, www.svgrepo.com, Generator: SVG Repo Mixer Tools -->
<!DOCTYPE svg PUBLIC "-//W3C//DTD SVG 1.1//EN" "http://www.w3.org/Graphics/SVG/1.1/DTD/svg11.dtd">
<svg fill="#F97316" height="800px" width="800px" version="1.1" id="Capa_1" xmlns="http://www.w3.org/2000/svg" xmlns:xlink="http://www.w3.org/1999/xlink" 
	 viewBox="0 0 340.726 340.726" xml:space="preserve">
<path d="M296.813,77.996h-0.965c0.362-1.4,0.48-2.712,0.48-3.814c0-1.143,0.055-2.809,0.118-4.738
	c0.486-14.79,1.497-45.566-13.148-60.7C277.684,2.941,270.521,0,262.008,0c-22.32,0-50.588,20.475-61.706,29.278
	c-4.302,3.406-20.978,16.979-29.94,29.503c-8.962-12.524-25.637-26.097-29.94-29.503C129.305,20.475,101.037,0,78.717,0
	c-8.513,0-15.675,2.941-21.29,8.743c-14.645,15.134-13.633,45.91-13.147,60.7c0.063,1.93,0.118,3.596,0.118,4.739
	c0,1.102,0.117,2.414,0.48,3.814h-0.965c-20.678,0-37.5,16.822-37.5,37.5v187.73c0,20.678,16.822,37.5,37.5,37.5h252.9
	c20.678,0,37.5-16.822,37.5-37.5v-44.954V141.599v-26.104C334.313,94.818,317.491,77.996,296.813,77.996z M264.497,92.996
	l54.816,54.816v74.247L190.25,92.996H264.497z M211.201,39.793C231.19,24.269,250.184,15,262.008,15
	c4.415,0,7.754,1.326,10.51,4.174c10.225,10.565,9.321,38.043,8.936,49.776c-0.064,1.969-0.121,3.681-0.129,5.122
	c-1.56,1.356-80.582,2.627-89.07,1.667c-9.599-1.086-12.107-2.967-12.607-3.452C181.024,68.217,192.201,54.549,211.201,39.793z
	 M68.207,19.174C70.962,16.326,74.302,15,78.717,15c11.825,0,30.818,9.269,50.808,24.793c19,14.756,30.177,28.424,31.554,32.494
	c-0.5,0.485-3.008,2.366-12.607,3.452c-8.488,0.96-87.519-0.313-89.073-1.67c-0.003-1.373-0.061-3.113-0.126-5.119
	C58.886,57.217,57.983,29.739,68.207,19.174z M21.413,191.501l134.233,134.224H81.399l-59.986-59.977V191.501z M21.413,303.226
	V286.96l38.772,38.766H43.913C31.506,325.726,21.413,315.632,21.413,303.226z M319.313,303.226c0,12.407-10.094,22.5-22.5,22.5
	H176.858L21.413,170.289v-54.793c0-12.407,10.093-22.5,22.5-22.5h125.124l150.276,150.276V303.226z M285.709,92.996h11.104
	c12.406,0,22.5,10.093,22.5,22.5v11.104L285.709,92.996z"/>
</svg>
